<?xml version="1.0" encoding="UTF-8"?><svg id="Layer_2" xmlns="http://www.w3.org/2000/svg" viewBox="0 0 228.26 204.62"><defs><style>.cls-1{fill:#ead141;}.cls-2{fill:#c2d959;}.cls-3{fill:#30193e;}.cls-4{fill:#cc9d81;}.cls-5{fill:#ddd076;}.cls-6{fill:#1ca1ac;}.cls-7{fill:#1d2440;}.cls-8{fill:#6d6ab0;}.cls-9{fill:#5aaf9e;}.cls-10{fill:#2b163c;}.cls-11{fill:#5b8ab6;}.cls-12{fill:#3abaac;}.cls-13{fill:#844e9f;}.cls-14{fill:#82c37c;}.cls-15{fill:#281f22;}</style></defs><g id="Layer_1-2"><path class="cls-13" d="m202.05,135.1c.16-1.24.38-2.48.02-3.73.73-2.05.11-4.2.44-6.28,1.73-.47,3.47-1.05,4.86.74.32.41.82.5,1.27.3,1.85-.8,2.92.18,3.81,1.62,0,4.2.06,8.41,0,12.61-.08,7.08-1.7,13.63-6.26,19.33-4.77,5.97-10.76,9.25-18.46,9.25-10.7,0-21.4.09-32.09-.04-2.86-.03-3.97.86-3.77,3.77.2,2.95.03,5.92.02,8.88-1.1-3.5.07-7.15-.83-10.68-.18,3.9-.2,7.79-.17,11.69.02,2.43,1.86,4.9,3.89,5.32,3.27.68,6.39-.78,7.49-3.51,0,0,0,.03,0,.03.7-.05,1.66.14,1.07-1.13.42-1.06.85-2.12,1.27-3.18,1.19-3,3.61-4.3,6.85-3.68,2.77.53,4.1,2.34,4.11,5.59,0,6.22-3.57,11.23-10.02,13.83-6.52,2.63-12.33,1.15-17.48-3.37-.91-.8-1.57-1.88-2.35-2.84.54-.42.64-.98.29-1.5-2.04-3-1.89-6.42-2.04-9.82-.08-1.95.53-3.97-.48-5.85.01-.22.02-.44.03-.67,1.63-.91,1.3-2.57,1.54-4.02,0,0,0-.01,0-.01.39-.24,1.26-.2.6-1.04,1.7-2.77,4.09-4.8,6.94-6.31,1.44.88,3.29,1.2,4.22,2.76,2.69,4.49,6.84,5.2,11.55,4.68,1.41-.16,2.86-.05,4.29-.03.99.01,2.02-.15,2.67-.83,3.41-3.58,8.49-3.98,12.37-6.61,2.49-1.7,6.19-1.78,7.3-5.36,6.38-5.22,7.87-12.16,7.01-19.93Z"/><path class="cls-8" d="m170.39,130.46c-1.16,3.36-3.03,6.26-5.59,8.72-2.46.2-4.66,1.46-6.28,2.96-3.09,2.84-6.8,4.35-10.44,6.06-4.31,2.03-8.56,4.07-10.15,9.08-.44,1.39-1.46,2.8-.18,4.28-.75,1.87-1.84,3.65-1.74,5.78-.12.07-.24.12-.37.17-.92.2-.8.96-.81,1.6-.02.98-.38,1.8-1.4,1.83-1.2.03-.8-1.06-.87-1.73-.08-.76-.12-1.44-.8-2.03-2.78-2.41-3.41-5.49-2.15-9,2.35-6.53,7.38-10.6,12.9-14.21,3.15-2.06,6.86-3.52,9.46-6.11,5.21-5.2,11.89-5.94,18.42-7.4Z"/><path class="cls-6" d="m174.62,135.43c-.14-.45-.39-.96.04-1.33,3.53-3.08,7.11-5.83,12.23-6,5.31-.18,9.89.89,13.42,5.08-4.36,5.67-10.56,7.23-17.25,7.68,0,0,0,0,0,0-.35-.63-.97-.6-1.55-.65-2.38-.86-4.23-2.52-6.19-4.03-.27-.22-.53-.44-.8-.66l.09-.1Z"/><path class="cls-8" d="m195.05,155.03c-1.11,3.58-4.81,3.67-7.3,5.36-3.88,2.63-8.96,3.03-12.37,6.61-.65.68-1.68.85-2.67.83-1.43-.02-2.87-.13-4.29.03-4.71.52-8.86-.19-11.55-4.68-.94-1.56-2.79-1.88-4.22-2.76.93-.57,1.83-1.2,2.99-1.23,2.8.78,5.59,1.88,8.53,1.68,6.05-.42,12.13-.72,18.07-1.97,1.73-.36,3.65.44,5.19-.88,2.66-.69,5.24-1.62,7.63-2.99Z"/><path class="cls-4" d="m212.46,127.75c-.89-1.43-1.96-2.42-3.81-1.62-.45.2-.95.11-1.27-.3-1.39-1.79-3.13-1.22-4.86-.74-.25-1.74.51-3.56-.44-5.24,1.81-2.15,4.56-2.11,6.93-2.93.93-.47,1.87-.94,2.8-1.41.2,1.47,1.35,1.46,2.46,1.86,1.44.52,3.68-.28,4.22,1.7.44,1.6,1.46,1.49,2.53,1.68-1.95,2.93-5.28,3.84-8.1,5.49-.16.5-.31,1.01-.47,1.51Z"/><path class="cls-13" d="m137.74,161.56c-1.28-1.48-.27-2.89.18-4.28,1.6-5.01,5.84-7.05,10.15-9.08,3.64-1.72,7.35-3.22,10.44-6.06,1.63-1.5,3.82-2.76,6.28-2.96-1.41,1.45-2.81,2.9-4.22,4.35-4.91,3.24-9.85,6.45-14.73,9.74-3.26,2.2-5.86,5.09-8.11,8.3Z"/><path class="cls-11" d="m187.41,158.02c-1.54,1.32-3.46.52-5.19.88-5.94,1.24-12.03,1.55-18.07,1.97-2.94.2-5.73-.9-8.53-1.68,2.34-.83,4.78-1.07,7.22-1.09,8.19-.07,16.37-.06,24.56-.09Z"/><path class="cls-8" d="m162.3,184.38c-1.1,2.73-4.22,4.2-7.49,3.51-2.04-.43-3.87-2.89-3.89-5.32-.03-3.9,0-7.79.17-11.69.9,3.52-.28,7.18.83,10.68,2.1,3.86,4.59,4.54,10.39,2.82Z"/><path class="cls-11" d="m183.07,140.86c6.69-.45,12.88-2.01,17.25-7.68.55.27.91.71,1.09,1.29-3.58,3.06-6.94,6.41-11.91,7.26-2.29.39-4.44.59-6.43-.87Z"/><path class="cls-8" d="m143.53,172.47c1,1.88.4,3.9.48,5.85.14,3.4,0,6.82,2.04,9.82.36.52.25,1.08-.29,1.5-3.29-4.56-3.2-9.72-2.64-14.95.08-.74.27-1.48.41-2.22Z"/><path class="cls-8" d="m145.1,167.79c-.24,1.45.09,3.11-1.54,4.02.23-1.45.49-2.88,1.54-4.02Z"/><path class="cls-8" d="m163.38,183.28c.59,1.27-.37,1.08-1.07,1.13.36-.38.71-.75,1.07-1.13Z"/><path class="cls-8" d="m145.7,166.73c.66.84-.21.8-.6,1.04.2-.35.4-.7.6-1.04Z"/><path class="cls-11" d="m181.52,140.22c.59.04,1.21.02,1.55.65-.65.11-1.22.02-1.55-.65Z"/><path class="cls-10" d="m174.53,135.53c.27.22.53.44.8.66-.27-.22-.53-.44-.8-.66Z"/><path class="cls-12" d="m105,.2c.77-.07,1.55-.13,2.32-.2,1.57,1.25,3.4.42,5.1.66,3.06,0,6.13,0,9.19,0,3.27.23,6.54.37,9.79.76,1.14.14,2.47,0,3.45.91,1.27,1.24,3.23.71,4.57,1.77-.18.42-.34,1.21-.53,1.21-5.25.2-5.29,3.33-5.45,7.65-.17,4.53,1.09,7.02,5.2,8.33,1.45.46,2.23,1.4,1.86,3.01-.72-.96-1.37-2.95-2.39-.19-1.82,2.31-3.73,4.55-5.44,6.94-3.24,4.5-6.2,9.15-6.43,14.96-.59.36-1.11.81-1.12,1.55-.06,3.65-1.46,7.15-1.23,10.84.04.73.04,1.63-.33,2.2-3.57,5.49-8.17,10.12-12.58,14.91-1.71,1.86-3.34,1.94-4.94-.16-.69-.9-1.69-1.17-2.79-1.16-6.23-7.71-6.19-16.57-4.19-25.53,1.03-4.59.74-8.38-2.12-12.28-3.1-4.24-5.79-8.78-9.2-13.11-2.38,4.5-4.54,8.73-6.84,12.88-.63,1.13-.05,1.4.68,1.95,1.66,1.24,3.57,2.24,4.49,4.26.18.28.35.55.53.83h0c-.98,5.14-1.82,10.3-2.33,15.51-7.27-2.1-11.74-8.02-12.16-15.5-.45-7.84,2.02-14.84,5.49-21.64.57-1.12,1.35-2.18,1.44-3.89-6.45,2.07-12.06,5.05-17.61,8.19-2.11,1.19-2.63,2.24-2.02,4.7.51,2.07.98,4.22,1.44,6.34,1.51,6.88,2.8,13.82,5.86,20.25,6.91,14.51,20.68,21.39,33.09,29.78-.06,1.17-1.56.99-1.84,1.94-1.03,3.5-3.91,3.64-6.8,3.76,0,0,.02,0,.02,0-.25-.45-.63-.64-1.13-.63h0c-.27-.17-.54-.34-.81-.51-.12.02-.22-.02-.29-.13-.23-.16-.46-.32-.68-.47l.04.03c-.24-.44-.62-.63-1.12-.63-1.51-.8-3.03-1.6-4.54-2.4,0,0,.02.02.02.02-2.12-1.44-4.25-2.87-6.37-4.32-11.45-7.79-19.4-18-22.63-31.75-1.34-5.71-1.98-11.57-3.8-17.97-1.08,2.32-2.9,2.83-4.23,4.02-6.57,5.9-11.16,13.08-14.12,21.37-2.37,6.63-4.18,13.36-4.59,20.43-.09,1.58-.03,2.56,2.15,2.63,2.28.07,4.6.79,6.8,1.52,13.73,4.54,22.46,13.74,26.06,27.85.84,3.3.98,6.91,3.36,9.7.01.36.03.72.04,1.08-.55,2.24,1.05,3.83,1.72,5.7-.71.64-1.57.91-1.44,2.37.27,2.96,1.33,5.85.8,9.06-1.35-.96-1.76-3.65-4.2-2.35-.13,0-.19-.07-.19-.2.14-.39,0-.53-.4-.45,0,0-.1-.11-.1-.11.07-.38-.08-.55-.46-.51,0,0-.1-.1-.1-.11.45-1.41-.68-1.51-1.53-1.84,0,0,.05.05.05.05-.19-.23-.37-.45-.56-.68,0,0,.02.03.02.03.03-.88-.35-1.47-1.19-1.74,0,0,.02.03.02.03-1.01-4.13-3.62-7.64-4.53-11.81-.11-.52-.48-.79-.98-.9-.63-2.37-1.2-4.75-1.91-7.1-3.67-12.11-15.77-20.62-28.4-19.88-6.06.36-13.63,7.61-10.5,15.92,2.29,6.07,6.8,9.5,13.11,10.68,3.12,1.02,3.01,3.48,2.86,6.1-.14,2.63,0,5.28.02,7.93.14,3.28-.27,6.58.32,9.85-1.01-.43-.86-1.36-.95-2.19-.07-.64-.48-1.31-1.06-.8-2.46,2.21-6.03,2.71-8.14,5.4-1.21-4.18-1.34-8.48-1.05-12.76.24-3.45-.02-6.35-4.11-7.2-2.26-.98-4.11-2.54-5.85-4.25.1-.37-.13-.51-.43-.59,0,0,0-.01,0-.01-1.15-1.54-2.29-3.08-3.44-4.62-4.58-10.28-3.71-19.22,4.55-28.72,1.12-.04,1.27-1.33,2.18-1.68,4.53-1.71,7.89-4.2,6.49-9.84-.04-.16.14-.35.16-.54.63-5.69,2.29-11.13,3.8-16.62,0,0,0-.02,0-.02.55-.43.58-1.06.63-1.69,0,0-.01.02-.01.02,1.41-3.21,2.9-6.34,4.72-9.38,5.2-8.68,11.63-16.31,19.49-22.54C60.33,12.19,77.97,4.52,97.72,1.67c2.39-.34,5.19.55,7.28-1.47Zm25.26,16.29c.87-1.15,1.74-2.29,2.76-3.63-5.97-.73-11.48-1.6-17.08-1.17-.91-.65-1.95-.6-3-.63-4.97-.14-9.86.77-14.75,1.39-5.38.68-5.18.8-1.84,5.33,6.59,8.92,12.58,18.21,15.3,29.18,1.03,4.18,1.43,8.45,1.77,12.77,1.27-1.49,1.4-3.21,1.3-4.96-.4-7.1,1.18-13.8,4.32-20.11,3.18-6.39,7.53-12.07,11.22-18.16Z"/><path class="cls-6" d="m103.25,74.19c1.1-.02,2.1.25,2.79,1.16,1.6,2.11,3.23,2.02,4.94.16,4.42-4.78,9.01-9.42,12.58-14.91.37-.57.37-1.47.33-2.2-.22-3.69,1.17-7.18,1.23-10.84.01-.74.54-1.18,1.12-1.55.07,3.06-.19,6.16.26,9.16,1.38,9.1-.57,17.25-6.19,24.53l.03.07c-.23.23-.46.46-.69.69-.16.05-.3.13-.42.23-.69,1.42-.65,2.85-.11,4.3,0,.64,0,1.28-.01,1.92-.2,1.99-1.36,4.09.65,5.83.52-.5,1.04-1.01,1.56-1.51,1.06,1.15,2.23.79,2.87-.23.66-1.05,1.76-1.4,2.49-2.19,1.41-1.53,3.58-1.22,5.06-2.37,3.28-2.56,7.15-3.48,11.1-4.23,1.52.54,3.11.66,4.7.71-.1.71-.51,1.19-1.11,1.56-4.98,3.06-9.97,6.13-14.94,9.2-1.32.82-3.07,1.12-3.54,2.96,0,0,.02-.02.02-.02-.98-.03-2.1-.33-2.31,1.17,0,0,.02-.02.02-.02-.88-.09-1.67-.03-1.79,1.11,0,0,.03,0,.03,0-.51,0-.91.17-1.15.65,0,0,.05-.03.05-.03-.88.02-1.5.41-1.8,1.26-.75.8-2.05,1.25-1.71,2.74-.49.88-.34,1.85-.34,2.79-.09,9.31-.16,18.63-.24,27.95-.91-1.07-.65-2.42-.47-3.53.54-3.27-1.37-3.79-3.89-3.98-2.9-.21-4.82,1.48-4.86,4.43,0,.76.03,1.51.04,2.27-.1-.06-.2-.11-.31-.15-.07-8.88-.39-17.76-.1-26.63.13-3.85-1.37-5.73-4.56-7.16-4.59-2.06-9.23-4.05-13.43-6.87,2.89-.12,5.77-.26,6.8-3.76.28-.95,1.78-.77,1.84-1.94,2.98,2.12,5.95,4.24,9.25,6.59-.47-5.94,1.58-11.93-3.47-16.51-.89-.81-1.89-1.6-2.32-2.81Z"/><path class="cls-11" d="m90.52,145.09c5.2,4.45,9.44,9.55,11.19,16.37.29,1.12.43,2.22.44,3.36-.02,6.26-.04,12.53-.05,18.79-.08.04-.17.12-.24.1-.07-.02-.16-.12-.18-.2-.64-3.13,1.08-7.44-4.18-8.3-.26-.04-.25-1.07-.57-1.49-1.37-1.83-1.13-4.99-4.34-5.31-.64-4.55-2.49-8.48-5.97-11.56,0,0,.03.03.03.03-1.17-1.93-3.28-2.87-4.75-4.48,1.8-.48,3,1.04,4.56,1.37.84.18,1.81.69,2.25-.39.87-2.14,2-4.13.5-6.73-.81-1.41-3.1-1.96-2.58-4.14,1.29.86,2.58,1.72,3.88,2.57Z"/><path class="cls-11" d="m135.64,167.51c-.06,5.72-.13,11.44-.19,17.16-.69-.68-.44-1.61-.68-2.4-.61-2.05-.86-5.1-2.25-5.83-2.29-1.19-3-2.78-3.71-4.84-.38-1.09-1.28-1.68-2.49-.9-.4-4.52-.1-8.95,1.6-13.21,3.3-7.71,9.53-12.56,16.38-16.8,5.4-3.33,10.37-7.13,14.06-12.4.13.02.25.03.38.06-.45,1.26-.2,1.95,1.24,1.32.8-.35,1.29-1.07,1.38-1.99.1-.63.45-1.02,1.09-1.13,1.75.27,2.69-1.26,4-1.91,4.38-2.16,7.36-5.45,7.43-10.69.36-.07.71-.13,1.07-.2-1.08,5.3-2.33,10.56-4.2,15.65-.13.35-.23.7-.35,1.05-6.53,1.45-13.21,2.2-18.42,7.4-2.6,2.59-6.31,4.05-9.46,6.11-5.52,3.61-10.55,7.68-12.9,14.21-1.26,3.51-.63,6.59,2.15,9,.68.59.72,1.27.8,2.03.07.67-.33,1.76.87,1.73,1.02-.03,1.38-.85,1.4-1.83.02-.64-.11-1.4.81-1.6Z"/><path class="cls-14" d="m143.51,106.52c-.2-.07-.4-.14-.61-.2-.36-.22-.72-.43-1.09-.65,0,0,.02.02.02.02-.2-.15-.4-.3-.61-.45,0,0-.11-.09-.11-.08-.36-.62-.94-.92-1.59-1.11,0,0-.08-.07-.08-.07-.38-.32-.75-.64-1.13-.96.01-.4.03-.81.04-1.21,1.33-1.33,2.66-2.67,3.99-4,0,0-.02.02-.02.02,1.72-.98,3.43-1.95,5.15-2.93,0,0-.02,0-.02,0,4.08-1.07,8.07-.65,12.02.68,0,0-.08-.03-.08-.04-.01.86.51,1.13,1.26,1.14.29.43.71.51,1.18.48h0c0,.97,0,1.95.01,2.92h0c-.19.19-.38.38-.58.58h0c-.19.19-.38.38-.57.58,0,0,.01,0,.01,0-.17-.03-.31.02-.42.14-1.66,1.41-3.75,2.36-4.76,4.46h0c-.48-.01-.89.13-1.14.57h-.02c-2.94.53-5.91.69-8.9.59-.46-.04-.93-.08-1.39-.11,0,0,0,.02,0,.02-.19-.13-.38-.25-.58-.38Z"/><path class="cls-12" d="m131.3,135.86c-7.65-8.53-6.91-20.13,1.86-28.87,2.32,2.55,3.37,5.75,3.25,9-.09,2.45-.19,4.94-.49,7.39-.26,2.2-.58,4.36-1.57,6.53-.93,2.04-2.32,3.83-3.04,5.95Z"/><path class="cls-12" d="m92.32,134.54c-2.23-2.44-4.48-4.84-5.91-7.9-2.14-4.57-2.19-9.14-.04-13.66,1.1-2.3,2.59-4.42,3.72-6.71.94-1.89,1.56-1.36,2.29.06-.19,1.36-.04,2.71.6,3.89,1.45,2.69,1.69,5.56,1.66,8.52-.06,4.52.4,9.08-1.14,13.47.02.98-.79,1.54-1.18,2.32Z"/><path class="cls-12" d="m46.58,129.23c.16-.03.29.02.39.15.27.41.65.58,1.14.53,0,0,.01,0,.01,0-.21,2.76-1.9,5.16-1.38,8.22.31,1.81-1.85,2.9-3.74,3.2-1.2.19-2.45.11-3.67.15-3.61-.4-6.21-2.71-8.96-4.73-2.75-1.83-.86-3.15.49-4.54h0c.21-.19.42-.37.63-.56,0,0-.04.04-.04.04.68-.27,1.35-.55,1.78-1.19,3.85-1.74,7.73-3.3,12.05-1.68.33.45.79.5,1.29.4Z"/><path class="cls-9" d="m62.23,137.26c2.44-1.3,2.85,1.38,4.2,2.35.53-3.21-.52-6.1-.8-9.06-.13-1.46.73-1.73,1.44-2.37,1.68,2.71,3.68,5.06,6.13,7.2,1.52,1.33,3.92,1.15,4.81,3.22.46,1.07,1.03,2.03,2.2,2.52.48.2,1.27.57.74,1.22-1.09,1.35-.14,2.28.43,3.34.93,1.71,1.24,3.15-1.48,3.24-.43.01-.85.33-1.28.5-.22.05-.45.1-.67.15-5.54-3.72-11.07-7.46-15.73-12.32Z"/><path class="cls-9" d="m147.55,82.92c-1.6-.05-3.18-.17-4.7-.71.27-1.44,1.25-2.25,2.49-2.82.45-.21.91-.43.78-.98-.17-.74-.76-.63-1.35-.53-1.29.21-2.75,1.15-3.63-.73,4.28-3.37,8.45-6.87,12.05-11-.21,1.87.63,2.86,2.51,2.9,2.65.06,5.28,1.4,7.94.09-.35,1.59-1.98,2.34-2.48,3.83,0,0,.05-.02.05-.02-.2.21-.41.43-.61.64,0,0,.01-.03.01-.03-1.32,1.34-2.63,2.67-3.95,4.01,0,0-.08.08-.08.08-.35.34-.7.69-1.05,1.04-.44.42-.88.83-1.32,1.25-.15.12-.29.25-.44.38-.82-.15-1.09,1.1-1.98.77-.84.23-1.68.46-2.51.68-.2.16-.4.32-.6.49-.37.22-.74.44-1.11.66Zm.13-5.4c.44-.06.68-.21.58-.56-.04-.13-.3-.32-.41-.29-.22.06-.41.25-.61.38.17.17.33.35.44.46Z"/><path class="cls-8" d="m109.24,133.28c.11.04.21.1.31.15,0,3.34,0,6.67,0,10.01.47-1.8.96-3.49,1.46-5.22.85-2.97,3.18-1.39,4.7-1.65.98-.17,2.53.97,2.51,2.85-.02,1.36-.52,2.87.51,4.12,0,3.69,0,7.37,0,11.06-3.02-.71-6.04-.6-9.06,0,0,0-.19.01-.19.02-.76-2.06-.33-4.22-.55-6.32,0-1.15.01-2.3.02-3.44.1-3.86.2-7.72.3-11.58Z"/><path class="cls-12" d="m136,202.87c.01.36.02.72.04,1.08-.22.52-.8.84-1.12.57-2.74-2.34-6.85-3.31-7.63-7.65-.12-.7-.68-1.32-1.04-1.98.18-.22.36-.44.54-.65.02-.18-.03-.33-.15-.46-.09-.61-.17-1.23-.26-1.84.66-3.62.68-7.23,0-10.85v-1.78c.13-.35.28-.69.4-1.05.23-.73-.43-2.02.86-2.05,1.13-.02,1.52,1.01,1.43,2.08-.11,1.35.68,2.24,1.31,3.32,1.09,1.89,2.26,3.73,2.9,5.95.76,2.61,1.26,5.31,2.21,7.87.17,2.48.34,4.97.51,7.45Z"/><path class="cls-9" d="m174.94,113.76c-.36.07-.71.13-1.07.2-.63-.74-.76-.17-1.17.31-1.95,2.32-3.59,5.41-6.1,6.6-2.83,1.34-3.48,3.29-4.16,5.69-.64.11-.99.5-1.09,1.13-.87.22-1.75.45-2.62.67-.13-.02-.25-.04-.38-.06,1.09-2.02,1.87-4.16,2.52-6.35,1.64-3.96,1.89-8.35,3.78-12.23,1.15,1.01,1.84,1.25,2.62-.6.7-1.68,1.6-3.44,4.44-2.31,2.17.86,4.42-.12,5.9-2.4,1.07-1.65,2.17-3.39,4.04-4.35.3.02.6.03.89.05-.86,1.39-2.47,2.18-3.07,3.79,0,0,0,.03,0,.03-1.45,1.44-2.34,3.19-2.93,5.12,0,0,.02.06.02.06-.73,1.05-.95,2.27-1.18,3.49-.15.38-.3.76-.45,1.14Zm-.78-1.49l.12-.2-.2-.03.07.22Z"/><path class="cls-6" d="m78.62,149.42c.43-.18.85-.49,1.28-.5,2.72-.09,2.41-1.53,1.48-3.24-.58-1.06-1.52-1.99-.43-3.34.53-.66-.26-1.02-.74-1.22-1.16-.49-1.74-1.45-2.2-2.52-.89-2.07-3.29-1.9-4.81-3.22-2.45-2.14-4.45-4.49-6.13-7.2-.67-1.87-2.27-3.46-1.72-5.7,1.6,1.4,2.04,3.56,3.36,5.15.19,1.08.98,1.7,1.79,2.3,0,0,.02.02.02.02.29.27.59.55.88.82,0,0,.02.04.02.03.25.53.64.89,1.2,1.08,0,0-.01-.04-.01-.04.22.19.43.38.65.57,0,0-.04-.04-.04-.04.22.18.44.37.67.55,0,0-.03-.04-.03-.04.21.19.42.39.63.58.2.18.4.35.6.53.35.25.69.5,1.04.76,0,0-.05-.06-.05-.06.23.18.46.36.68.54,0,0-.02,0-.02,0,.4.63.96,1.04,1.68,1.25l.07-.21s-.09.21-.08.21c2.35,1.93,4.8,3.71,7.47,5.17,0,0-.05-.01-.05-.01.02.14.07.26.15.37-.27.77.35.47.66.54h.03c-.52,2.17,1.76,2.72,2.58,4.13,1.5,2.6.37,4.58-.5,6.73-.44,1.07-1.41.56-2.25.39-1.56-.33-2.76-1.84-4.56-1.37h.04c-.17-1.41-1.17-1.66-2.34-1.69,0,0,0-.01,0-.01-.33-.43-.66-.85-.99-1.28Z"/><path class="cls-6" d="m131.3,135.86c.72-2.12,2.12-3.91,3.04-5.95.99-2.18,1.31-4.33,1.57-6.53.29-2.44.4-4.94.49-7.39.12-3.25-.93-6.45-3.25-9,1.27-1.95,2.28-1.45,3.38.23,7.09,10.89,6.46,19.47-2.18,29.31-.5.57-1,1.13-1.57,1.78-.51-.85-1-1.65-1.48-2.46Z"/><path class="cls-13" d="m109.67,154.61c3.02-.6,6.04-.7,9.06,0,.17.39.34.78.51,1.16.15,1.61.87,3.13.67,4.8-.32,2.68-3.23,5.21-5.78,4.94-2.77-.29-5.38-3.07-5.17-5.64.15-1.76-.55-3.65.7-5.27Z"/><path class="cls-6" d="m39.33,141.49c1.23-.04,2.47.04,3.67-.15,1.89-.29,4.04-1.39,3.74-3.2-.52-3.06,1.17-5.46,1.38-8.22,1.02.41,2.05.82,3.07,1.23.3.21.59.41.89.62,0,0-.07-.02-.07-.02.51.96,1.43,1.42,2.31,1.92.14.12.29.23.43.35.25.21.51.41.76.62,0,0-.08-.04-.08-.04-1.54,3.26-4.62,4.84-7.39,6.77,0,0,.03-.02.03-.02-2.91.49-5.81,1.37-8.74.14Z"/><path class="cls-9" d="m83.13,105.86c-2.79,1.85-5.89,2.44-9.18,2.19-.03-.13-.04-.26-.03-.39,4.54-2.09,4.51-2.09,4.09-7.54-.13-1.73-.74-3.55.56-5.14.17-.06.34-.11.51-.14.18.06.36.12.54.18,0,0-.02-.04-.02-.04.61.43,1.22.86,1.83,1.29.1.16.23.28.38.37l.14.09c.2.15.41.3.61.45h0c.08,1.25,2.18,2.51-.1,3.8-.59.33-.35,1.24.21,1.73.84.74,1,1.78,1.33,2.75,0,0-.1-.08-.1-.08-.26.16-.51.31-.77.47Z"/><path class="cls-9" d="m93.5,132.22c1.54-4.39,1.08-8.95,1.14-13.47.04-2.96-.2-5.84-1.66-8.52-.64-1.18-.79-2.53-.6-3.89,1.46,1.61,3.01,3.16,3.95,5.16.66,4.96.42,9.96.64,14.94.13,2.89-.84,4.74-3.48,5.78Z"/><path class="cls-6" d="m93.5,132.22c2.64-1.04,3.61-2.89,3.48-5.78-.22-4.98.02-9.97-.64-14.94,3.84,5.7,3.86,11.74,1.48,17.92-.68,1.76-1.95,3.29-2.64,5.05-1.02,2.59-1.87,1.53-2.86.07.39-.78,1.2-1.34,1.18-2.32Z"/><path class="cls-11" d="m149.26,81.77c.84-.23,1.67-.46,2.51-.68-.28.48-.45,1.1-.85,1.42-7.1,5.61-14.57,10.62-22.97,14.13.47-1.84,2.22-2.14,3.54-2.96,4.98-3.07,9.96-6.14,14.94-9.2.6-.37,1-.85,1.11-1.56.37-.22.74-.44,1.11-.66.2-.16.4-.32.61-.49Z"/><path class="cls-6" d="m84,105.47c-.33-.97-.49-2.01-1.33-2.75-.56-.49-.79-1.4-.21-1.73,2.28-1.29.18-2.55.1-3.81.36.11.73.22,1.09.33.54.52,1.08,1.03,1.61,1.55,3.73,3.76,3.69,3.94-1.26,6.4Z"/><path class="cls-5" d="m195.51,54.2c-1.56-2.59-2.53-5.54-4.78-7.71,0,0-.05.02-.05.02-.12-.81-.66-1.32-1.28-1.78,0-.21-.09-.35-.29-.41-.67-.8-1.34-1.61-2.01-2.41-1.42-1.6-2.84-3.19-4.25-4.79.1-.1.19-.2.29-.3,5.51,3.52,9.09,8.66,12,14.36.48.93.73,1.96.38,3.03Z"/><path class="cls-5" d="m75.28,196.31c-6.31,2.18-11.68-.06-16.81-3.53-.06-.19-.18-.28-.38-.27-.83-1.13-2.15-1.88-2.67-3.27,0,0,.18-.18.18-.18.83.06,1.36.6,1.9,1.14,3.45,3.49,7.49,5.58,12.49,6.05,1.8.17,3.56-.88,5.29.05Z"/><path class="cls-9" d="m188.41,72.57c-3.06,1.94-6.49,1.67-9.87,1.59-2.36-.17-4.55-.85-6.48-2.26.06-.18.07-.36.03-.54,5.34,1.82,10.72,2.98,16.32,1.2Z"/><path class="cls-9" d="m52.28,119.02c.5.11.87.39.98.9.91,4.17,3.52,7.68,4.53,11.81-2.87-3.79-4.29-8.21-5.51-12.71Z"/><path class="cls-8" d="m102.71,166.68c-.06,5.76-.13,11.53-.19,17.29-.14-.11-.28-.23-.42-.36.02-6.26.04-12.53.05-18.79.18.62.37,1.24.55,1.86Z"/><path class="cls-6" d="m27.83,119.06c.1,4.55.03,9.09-.37,13.62-.02-2.64-.16-5.29-.02-7.93.14-2.62.26-5.08-2.86-6.1,1.09.1,2.1.84,3.26.41Z"/><path class="cls-9" d="m171.08,88.6c-.08.15-.12.31-.14.48,0,0,.07,0,.07,0-.48.05-.98.05-1.25.56,0,0,.03-.05.03-.05-1.28.25-2.56.39-3.83-.09-.24-.12-.47-.23-.71-.35-.08-.18-.17-.37-.25-.55,2.03.48,4.06-.14,6.09,0Z"/><path class="cls-9" d="m155.84,7.61c.5.3.99.61,1.49.91-1.76.1-3.5.16-4.55-1.67.95.23,1.9.46,2.85.68,0,0,.22.07.22.07Z"/><path class="cls-9" d="m169.87,69.06c.38-.27.76-.54,1.13-.81-.02.88-.04,1.75-.06,2.62-.5-.15-.99-.31-1.49-.46.01-.14-.04-.24-.17-.3.02-.15.05-.31.08-.46,0,0-.04.03-.04.03.19-.22.38-.43.57-.65l-.02.03Z"/><path class="cls-11" d="m81.95,152.4c-.38-.06-.76-.12-1.13-.18-.4-.5-.8-1.01-1.2-1.51,1.16.03,2.17.28,2.34,1.69Z"/><path class="cls-9" d="m59.44,134.04c.85.33,1.98.42,1.53,1.84-.51-.61-1.02-1.22-1.53-1.84Z"/><path class="cls-11" d="m125.66,97.8c.21-1.5,1.33-1.2,2.31-1.17-.57.78-1.37,1.12-2.31,1.17Z"/><path class="cls-11" d="m123.89,98.89c.12-1.14.91-1.2,1.79-1.11-.37.73-1.05.97-1.79,1.11Z"/><path class="cls-11" d="m121.02,100.76c.3-.85.92-1.24,1.8-1.26-.4.71-1.12.95-1.8,1.26Z"/><path class="cls-11" d="m78.62,149.42c.33.43.66.85.99,1.28-.55-.38-1.11-.75-1.66-1.13.22-.05.45-.1.67-.15Z"/><path class="cls-15" d="m22.21,157.55c-.69-.38-1.09-.95-1.13-1.75,0,0,.19-.17.19-.17l1.15,1.72c-.07.07-.14.13-.21.2Z"/><path class="cls-9" d="m57.77,131.7c.84.28,1.23.87,1.19,1.74-.64-.42-.96-1.05-1.19-1.74Z"/><path class="cls-5" d="m182.24,36.81c-.18-.26-.37-.52-.55-.79.75-.23,1.13.22,1.45.79-.1.1-.19.2-.29.3-.2-.1-.4-.2-.61-.3Z"/><path class="cls-7" d="m20.58,56.41c-.05.62-.08,1.25-.63,1.69,0-.64-.01-1.29.63-1.69Z"/><path class="cls-11" d="m122.77,99.53c.24-.47.65-.65,1.15-.65-.38.22-.77.43-1.15.65Z"/><path class="cls-6" d="m48.11,129.91c-.48.05-.87-.11-1.14-.53.49-.07.92,0,1.14.53Z"/><path class="cls-6" d="m46.58,129.23c-.5.1-.96.05-1.29-.4.5-.09.97-.1,1.29.4Z"/><path class="cls-15" d="m83.76,166.08c.17.2.34.41.51.61,0,0-.08.09-.08.09-.16-.22-.32-.44-.48-.66l.06-.04Z"/><path class="cls-15" d="m143.51,106.52c.19.13.38.25.58.38-.19-.13-.38-.25-.58-.38Z"/><path class="cls-7" d="m52.08,131.77c-.3-.21-.59-.41-.89-.62.3.21.59.41.89.62Z"/><path class="cls-15" d="m31.5,131.66c-.21.18-.42.37-.63.55.21-.18.42-.37.63-.55Z"/><path class="cls-7" d="m73.25,132.4c-.21-.19-.43-.38-.65-.57.21.19.43.38.65.57Z"/><path class="cls-15" d="m141.23,105.24c.2.15.4.3.61.45-.2-.15-.4-.3-.61-.45Z"/><path class="cls-6" d="m83.13,105.86c.26-.16.51-.31.77-.47-.26.16-.51.31-.77.47Z"/><path class="cls-9" d="m58.94,133.41c.19.23.37.45.56.68-.19-.23-.37-.45-.56-.68Z"/><path class="cls-7" d="m55.51,134.64c-.25-.21-.5-.41-.76-.62.25.21.51.41.76.62Z"/><path class="cls-7" d="m76.75,135.21c-.23-.18-.45-.36-.68-.54.23.18.45.36.68.54Z"/><path class="cls-15" d="m23.34,158.7c-.18-.2-.37-.4-.55-.6l.1-.09c.16.04.32.07.48.09h0c0,.17.03.34.07.51l-.09.08Z"/><path class="cls-15" d="m22.79,158.1c-.19-.18-.38-.37-.57-.55.07-.07.14-.14.21-.2.15.22.31.44.46.67l-.1.09Z"/><path class="cls-9" d="m61.08,135.98c.38-.04.54.13.46.51-.16-.17-.31-.34-.46-.51Z"/><path class="cls-9" d="m61.64,136.6c.39-.08.54.05.4.45-.13-.15-.26-.3-.4-.45Z"/><path class="cls-15" d="m153.76,80.32c.15-.13.3-.25.44-.38-.15.13-.3.25-.44.38Z"/><path class="cls-15" d="m160.59,73.59c.2-.21.41-.42.61-.64-.2.21-.41.43-.61.64Z"/><path class="cls-15" d="m169.37,69.65c-.03.15-.06.31-.08.46-.05-.12-.1-.23-.12-.35,0-.02.13-.07.21-.11Z"/><path class="cls-7" d="m126.78,194.24c-.18.22-.36.44-.54.65-.01-.21-.02-.41-.04-.62,0,0,.2-.19.2-.19.13.04.25.09.37.16Z"/><path class="cls-15" d="m169.9,69.03c-.19.22-.38.43-.57.65.19-.22.38-.43.57-.65Z"/><path class="cls-15" d="m31.5,150.57c.19.19.37.38.56.56-.07.07-.15.15-.23.22-.15-.22-.3-.45-.45-.67l.12-.11Z"/><path class="cls-7" d="m73.88,132.91c-.22-.18-.44-.37-.67-.55.22.18.44.37.67.55Z"/><path class="cls-7" d="m74.47,133.45c-.21-.19-.42-.39-.63-.58.21.19.42.39.63.58Z"/><path class="cls-7" d="m6.2,120.14c.3.08.53.22.43.59-.14-.2-.29-.39-.43-.59Z"/><path class="cls-1" d="m212.18,93.23c-1.5-1.07-3.24-1.58-5-2.03-1.19-1.75-3.04-.58-4.53-1.02-.22-2.5-.44-5-.66-7.49-.02-.37-.04-.74-.06-1.11.16-6.71-1.37-13.13-3.42-19.46-.23-.72-.42-1.45-.62-2.18-.37-2.07.45-4.63-2.36-5.68,0,0-.03-.04-.03-.04.35-1.07.09-2.1-.38-3.03-2.9-5.7-6.49-10.84-12-14.36-.32-.57-.69-1.02-1.45-.79,0,0,.02-.03.02-.03.04-.73-.45-.84-1.01-.88-.15-.14-.31-.29-.46-.43-.22-.22-.43-.45-.64-.67,0,0,.03.05.03.05-.23-.9-.87-1.21-1.73-1.21,0,0,.02.02.02.02.02-.71-.34-1.07-1.02-1.15-.03-2.5.73-4.87,1.3-7.27.26-1.07.91-1.9,2.16-1.97.94.89,2,1.42,3.34,1.14,0,0-.02-.01-.02-.01.2.2.41.39.61.59,0,0-.03-.03-.03-.03.21.19.43.39.64.58,0,0,0-.06,0-.06-.18.76.24,1.28.73,1.75,5.52,5.35,10.46,11.2,14.96,17.43.72,1,1.07,2.54,2.71,2.67,0,0-.02-.02-.02-.02-.05.52.03.97.62,1.15l-.1.12s.09-.12.09-.12c-.07.51.01.94.59,1.11,0,0,.02.04.02.04-.06.95-.56,2.11,1.08,2.25,0,0,.05.08.05.08-.19,1.66.02,3.14,1.72,3.97l-.14.05s.14-.03.14-.03c-.08.48-.05.92.46,1.17,0,0,.05.09.05.09.08.94-.02,1.95.27,2.82,1.83,5.45,3.02,10.98,3.34,16.76.09,1.6-.71,3.93,1.51,5.07,0,0,0,0,0,0,.07,1.18,1.09,1.61,1.88,1.97,3.37,1.56,6.01,3.9,8,7.02,1.99,3.12,4.03,6.31,4.4,10.02.48,4.76.37,9.57-2.44,13.82-.51.77-.42,1.64-.38,2.5-.29.48-.57.97-.86,1.45-.98.18-1.6.65-1.45,1.76,0,0,.02-.02.02-.02-.4,0-.6.2-.58.61,0,0,.02-.02.02-.02-.4,0-.6.19-.59.59,0,0,.03-.01.03-.01-1.08-.19-2.1-.08-2.53-1.68-.54-1.98-2.79-1.18-4.22-1.7-1.11-.4-2.26-.39-2.46-1.86,0,0,.01.05.01.05,1.56-.06,2.67-1.02,3.57-2.1,3.71-4.42,4.02-9.6,2.3-14.72-.8-2.4-1.62-5.77-5.52-5.51Z"/><path class="cls-5" d="m224.44,116.4c-.05-.86-.13-1.74.38-2.5,2.81-4.25,2.92-9.06,2.44-13.82-.37-3.71-2.41-6.9-4.4-10.02-1.99-3.12-4.62-5.46-8-7.02-.79-.36-1.81-.8-1.88-1.97.53.05,1.06.1,1.59.15,3.19,1.65,6.16,3.6,8.54,6.36,3.27,4.56,5.16,9.7,5.14,15.25-.01,4.77-.57,9.61-3.82,13.58Z"/><path class="cls-4" d="m222.13,119.61c-.15-1.11.47-1.58,1.45-1.76-.37.68-.68,1.41-1.45,1.76Z"/><path class="cls-4" d="m221.57,120.19c-.02-.4.17-.6.58-.61-.03.36-.2.58-.58.61Z"/><path class="cls-4" d="m221,120.76c0-.4.19-.59.59-.59-.03.36-.23.56-.59.59Z"/><path class="cls-6" d="m126.38,179.3c-.02-2.86-.05-5.73-.07-8.59,1.22-.78,2.12-.19,2.49.9.71,2.05,1.42,3.64,3.71,4.84,1.39.73,1.64,3.78,2.25,5.83.24.79-.01,1.72.68,2.4.01,3.58.03,7.17.04,10.75-.95-2.56-1.45-5.25-2.21-7.86-.64-2.22-1.81-4.06-2.9-5.95-.63-1.09-1.42-1.98-1.31-3.32.09-1.07-.31-2.11-1.43-2.08-1.29.03-.63,1.32-.86,2.05-.11.36-.26.7-.4,1.05Z"/><path class="cls-14" d="m166.31,12.29c.39.18.79.36,1.18.54,1.12.6,2.25,1.21,3.37,1.81.36.22.72.44,1.08.66,2.43,1.57,5.03,2.87,7.2,4.82l-.1.11c-2.85-.59-5.29-2.05-7.73-3.54-4.15-2.53-5.07-2.3-7.22,1.89-.69,1.34-.69,2.37.69,3.45,1.43,1.12,3.21,2.03,3.79,4-4.82-2.53-9.5-5.32-14.67-7.12-.49-.28-.94-.67-1.47-.81-1.42-.39-3.21-1.95-4.12-1-.99,1.03.62,2.71,1.19,4.05,2.15,5.05,5.06,9.88,4.18,15.73-2.44-.43-5.16.84-7.33-1.22-.2-.37-.4-.74-.6-1.11-.02-.49-.18-.92-.63-1.17-.49-1.66.23-3.9-2.24-4.59-.19-1.84-.75-3.49-2.4-4.56l.02.06c.37-1.62-.41-2.55-1.86-3.01-4.12-1.32-5.38-3.8-5.2-8.33.16-4.32.2-7.46,5.45-7.65.19,0,.36-.79.53-1.21.56.12,1.11.28,1.68.34,3.96.46,7.58,2.56,11.66,2.44,0,0,.03,0,.03,0,1.05,1.83,2.79,1.77,4.55,1.67,0,0,.02.02.02.02.64,1,1.46,1.52,2.66.96l6.29,2.79Z"/><path class="cls-14" d="m18.19,147.63c.03-.43.1-.88-.47-1.04-.03-.55-.06-1.1-.08-1.65,2.11-2.7,5.68-3.2,8.14-5.4.58-.52.99.15,1.06.8.09.84-.06,1.76.95,2.19.33,1.33.67,2.66,1,3.99.01.76.02,1.52.03,2.28-.38,1.64-1.8,2.3-3.03,3.1-1.35.87-2.63,1.77-3.19,3.37-.51-.19-1.03-.39-1.54-.58,0,0,0-.04,0-.04,0-.5-.15-.9-.66-1.09,0,0-.01,0-.01,0,.07-.53-.04-.97-.63-1.13,0,0,.02.01.02.01.12-.54.04-.99-.54-1.23,0,0,.03.04.04.04.18-1.38-.25-2.57-1.08-3.65Z"/><path class="cls-6" d="m86.59,43.18c2.89,4.31,2.93,11.34.19,15.41-.91,1.36-1.65.8-2.52.1.51-5.21,1.34-10.37,2.33-15.51Z"/><path class="cls-9" d="m152.76,6.86c-4.08.13-7.7-1.97-11.66-2.44-.56-.07-1.12-.23-1.68-.34-1.34-1.06-3.3-.53-4.57-1.77,6.25.41,12.07,2.48,17.9,4.55Z"/><path class="cls-6" d="m112.42.66c3.06-.83,6.13-.53,9.19,0-3.06,0-6.13,0-9.19,0Z"/><path class="cls-6" d="m88.3,90.92c-.37-.21-.75-.42-1.12-.63.49,0,.88.18,1.12.63Z"/><path class="cls-6" d="m91.17,92.62c-.49-.01-.88-.19-1.13-.63.5-.02.88.18,1.13.63Z"/><path class="cls-6" d="m86.07,42.35c.18.28.35.55.53.83-.18-.28-.35-.55-.53-.83Z"/><path class="cls-6" d="m90.04,92c-.27-.17-.54-.34-.81-.51.27.17.54.34.81.51Z"/><path class="cls-6" d="m88.94,91.36c-.23-.16-.46-.32-.68-.47.23.16.46.32.68.47Z"/><path class="cls-12" d="m73.92,107.66c-.56-.05-1.12-.1-1.68-.15-.77-.38-1.54-.75-2.31-1.13-2.67-1.48-4.74-3.67-6.86-5.8,0,0,.02.03.02.03-.2-.21-.41-.42-.61-.63,0,0,.05.05.05.05-.21-.22-.41-.44-.62-.66,0,0,.08.03.08.03-.25-.36-.51-.72-.76-1.08.02-.19.05-.37.09-.55.21-.2.41-.4.62-.61,0,0-.06.05-.06.05,1.18.13,2.17-.25,2.94-1.16,0,0,0,.05,0,.05,4.48-1.58,8.97-2.94,13.73-1.15-1.3,1.59-.69,3.41-.56,5.14.42,5.45.45,5.45-4.09,7.54Z"/><path class="cls-12" d="m44.11,74.12c-5.15-.49-9.08-3.55-13.17-6.26-1.36-.9-.77-1.69.14-2.45,4.12-3.48,8.82-5.05,14.21-4.35.5.56,1.12.54,1.78.36,0,0,.05-.02.05-.02-.59,2.42-1.1,4.87-.48,7.34.76,3.03.25,4.22-2.53,5.38Z"/><path class="cls-6" d="m44.11,74.12c2.78-1.16,3.29-2.35,2.53-5.38-.62-2.48-.11-4.92.48-7.34,4.17.6,6.53,4.03,9.68,6.22.75.52.1,1.01-.3,1.34-3.58,3.03-7.17,6.06-12.39,5.15Z"/><path class="cls-6" d="m47.06,61.41c-.65.19-1.27.2-1.78-.36.64-.12,1.26-.16,1.78.36Z"/><path class="cls-15" d="m62.47,99.99c.2.21.41.42.61.63-.2-.21-.41-.42-.61-.63Z"/><path class="cls-15" d="m61.91,99.39c.21.22.41.44.62.66-.21-.22-.41-.44-.62-.66Z"/><path class="cls-15" d="m61.94,97.19c-.21.2-.41.4-.62.61.21-.2.41-.4.62-.61Z"/><path class="cls-11" d="m118.93,137.96c-.07,1.87-.13,3.73-.2,5.6-1.03-1.26-.53-2.76-.51-4.13.02-1.88-1.52-3.02-2.51-2.85-1.52.27-3.85-1.32-4.7,1.65-.5,1.73-.99,3.42-1.46,5.22,0-3.34,0-6.68,0-10.01-.02-.76-.05-1.51-.04-2.27.03-2.95,1.96-4.65,4.86-4.43,2.52.19,4.43.7,3.89,3.98-.18,1.11-.44,2.46.47,3.53.07,1.24.13,2.48.2,3.72Z"/><path class="cls-12" d="m122.75,89.92c3.9-3.84,8.78-6.34,13.2-9.46.22-.16.45-.33.67-.49,0,0-.04.05-.04.05,1.33-.53,2.47-1.33,3.46-2.34,0,0-.04.03-.04.03.22-.2.43-.4.65-.6,0,0-.03.07-.03.07.17-.02.34-.03.51-.03.88,1.88,2.33.94,3.63.73.58-.09,1.18-.21,1.35.53.13.55-.34.78-.78.98-1.24.57-2.22,1.39-2.49,2.82-3.95.74-7.83,1.67-11.1,4.23-1.48,1.16-3.65.85-5.06,2.37-.73.79-1.82,1.15-2.49,2.19-.65,1.02-1.82,1.38-2.87.23,0,0,.06-.02.06-.02.89.03,1.26-.5,1.38-1.3Z"/><path class="cls-11" d="m119.12,86.91c.59,1.9-.75,4.02.65,5.83-2.01-1.74-.84-3.84-.65-5.83Z"/><path class="cls-11" d="m119.24,80.69c-.04,1.43-.07,2.87-.11,4.3-.54-1.45-.58-2.89.11-4.3Z"/><path class="cls-7" d="m120.35,79.77c-.23.23-.46.46-.69.69.23-.23.46-.46.69-.69Z"/><path class="cls-4" d="m102.1,183.61c.13.13.27.25.42.36.02,4.63.53,9.31-1.52,13.71-.06-.2-.13-.4-.19-.6l.22-2.87c.72-1.1.76-2.19-.03-3.27-.05-.25-.1-.49-.15-.74.43-2.76.35-5.28-2.8-6.53-.75-.3-1-1.04-1.26-1.78-.37-1.05-1.46-1.24-2.35-1.22-1.26.02-.94,1.18-1.02,1.96-.07.66,0,1.34-.64,1.79-.07-5.33-.13-10.67-.2-16,3.21.32,2.96,3.49,4.34,5.31.32.42.31,1.45.57,1.49,5.26.86,3.54,5.17,4.18,8.3.02.08.11.18.18.2.07.02.16-.06.24-.1Z"/><path class="cls-6" d="m162.44,126.55c.68-2.4,1.32-4.35,4.16-5.69,2.52-1.19,4.15-4.29,6.1-6.6.41-.48.54-1.05,1.17-.31-.06,5.24-3.05,8.53-7.43,10.69-1.32.65-2.26,2.18-4,1.91Z"/><path class="cls-6" d="m158.73,128.36c.87-.22,1.75-.45,2.62-.67-.09.92-.58,1.65-1.38,1.99-1.44.63-1.69-.06-1.24-1.32Z"/><path class="cls-9" d="m154.37,106.41c-2.87,1.66-5.79,2.48-8.9.59,2.99.1,5.95-.05,8.9-.59Z"/><path class="cls-4" d="m160.71,101.62c-1.34,1.88-2.81,3.6-5.17,4.22,1.02-2.1,3.11-3.04,4.76-4.45.09.16.23.23.41.23Z"/><path class="cls-5" d="m161.85,97.15c1.43-.02,2.43.24,1.27,1.93-.42.33-.84.67-1.26,1,0-.98,0-1.96-.01-2.93Z"/><path class="cls-4" d="m155.53,105.84c-.15.66-.66.58-1.14.57.26-.44.66-.59,1.14-.57Z"/><path class="cls-5" d="m160.67,96.68c.51-.12.93-.04,1.18.48-.47.03-.89-.05-1.18-.48Z"/><path class="cls-5" d="m160.71,101.62c-.18,0-.32-.08-.41-.23.11-.13.25-.18.42-.15,0,0,.15.2.15.2l-.16.18Z"/><path class="cls-5" d="m161.28,100.66c0,.37-.1.66-.57.58.19-.19.38-.39.57-.58Z"/><path class="cls-5" d="m161.86,100.08c-.02.36-.16.61-.58.58.19-.19.38-.39.58-.58Z"/><path class="cls-14" d="m163.63,69.14c-2.66,1.31-5.29-.03-7.94-.09-1.88-.04-2.71-1.04-2.51-2.9,0,0,0,0,0,0,.73-.07,1.11-.45,1.02-1.21l.05-.05c.17-.2.34-.4.51-.6,2.11-3.12,4.13-6.31,5.83-9.68.31,4.04,3.59,5.39,6.46,7.11-.28.58-.68,1.13-.8,1.74-.42,2.1-3.23,3.06-2.65,5.62l.04.07Z"/><path class="cls-12" d="m147.68,77.52c-.11-.12-.28-.29-.44-.46.2-.14.39-.32.61-.38.11-.03.37.16.41.29.1.35-.14.5-.58.56Z"/><path class="cls-6" d="m149.26,81.77c-.2.16-.4.32-.61.49.2-.16.4-.32.61-.49Z"/><path class="cls-6" d="m126.37,191.93c-.27-3.62-.21-7.23,0-10.85.67,3.62.65,7.23,0,10.85Z"/><path class="cls-6" d="m126.78,194.24c-.12-.06-.24-.11-.37-.16.03-.13.1-.24.22-.31.12.13.17.29.15.46Z"/><path class="cls-14" d="m168.78,100.69c3.09-3.62,6.29-7.12,10.22-9.88,0,0,.12.1.12.1.06.65-.09,1.74.21,1.88,2.37,1.11,2.49,3.46,3.21,5.47-.06.27-.12.55-.18.82-.17.01-.26.11-.28.28-.15.23-.29.47-.44.7-1.87.96-2.97,2.69-4.04,4.35-1.47,2.28-3.73,3.26-5.9,2.4-2.84-1.13-3.75.64-4.44,2.31-.77,1.86-1.46,1.62-2.62.6.77-3.29,2.43-6.17,4.14-9.04Z"/><polygon class="cls-6" points="174.16 112.26 174.08 112.04 174.28 112.07 174.16 112.26"/><path class="cls-5" d="m181.64,100.06c.15-.23.29-.47.44-.7,0,0,.15.02.15.02l.14-.03.54.39c-.05.2-.18.32-.38.38-.3-.02-.6-.03-.89-.05Z"/><path class="cls-2" d="m22.6,155.28c.56-1.6,1.84-2.5,3.19-3.37,1.23-.8,2.65-1.46,3.03-3.1.32,0,.64,0,.97,0,0,0,0,.04,0,.04-.04.51.08.93.61,1.13,0,0-.03,0-.03,0,.18.2.36.4.54.6h.02c0,1.58.34,2.88,2.3,2.86,0,0,0,0,0,0,.2.19.39.39.59.58,0,0-.01-.01-.01-.01.2.19.39.39.59.58,0,0-.01-.01-.01-.01.2.2.39.41.59.61.94.59,1.89,1.18,2.83,1.77.28.43.7.53,1.18.5,0,0-.02-.01-.02-.01,1.56,1.76,3.69,1.73,5.76,1.74,7.92.03,15.84.01,23.76.02.95,0,1.92-.05,2.86.1,2.95.47,4.44,2.41,4.24,5.19-.23,3.1-2.13,3.38-4.71,3.32-11.62-.26-23.25.41-34.86-.46,0,0-.02.07-.02.07-.45-1.56-1.66-1.35-2.84-1.24,0,0,.03,0,.03,0-.19-.57-.62-.69-1.16-.61,0,0,.03,0,.03,0-.19-.57-.63-.66-1.15-.6,0,0,0,0,0,0-.27-.17-.54-.35-.81-.52-2.14-1.43-3.87-3.3-5.57-5.19-.19-.19-.37-.38-.56-.57,0,0-.01.01-.01.01-.18-.21-.36-.41-.54-.62,0,0,0,0,0,0-.26-.94-.51-1.89-.77-2.83Z"/><path class="cls-5" d="m35.98,167.36c11.61.87,23.24.2,34.86.46,2.58.06,4.49-.22,4.71-3.32.2-2.77-1.3-4.72-4.24-5.19-.93-.15-1.9-.1-2.86-.1-7.92,0-15.84.01-23.76-.02-2.07,0-4.2.02-5.76-1.74,8.43,1.41,16.91.49,25.37.6,5.24.07,10.22.76,14.75,3.55.99,1.03,1.99,2.05,2.98,3.08-2.75,2.71-2.7,4.06-1.69,7.88.54,2.05,1.73,3.51,2.84,4.96,1.65,2.16,1.32,4.76,2.26,7.03,0,1.27-.11,2.5-1.05,3.48.03-2.11-.48-4.09-1.19-6.07-.62-1.73-1.97-1.42-3.27-1.52-1.42-.11-1.55.54-1.71,1.82-.19,1.49-1.39,2.41-3.09,2.27l-.06-.07c1.19-1.15,1.8-2.6,2.21-4.16.1-.15.1-.29,0-.44-.03-1.35-.06-2.71-.09-4.06.01-.43.03-.85.04-1.28.01-.57.05-1.14.04-1.71-.06-3.43-.78-4.18-4.19-4.23-11.26-.19-22.52.33-33.78-.14-1.24-.05-2.43-.07-3.34-1.07Z"/><path class="cls-5" d="m53.72,186.33c-1.7-3.54-1.49-6.16.76-8.26,1.94-1.81,4.25-2.12,6.54-.9,2.37,1.26,2.55,4.06,3.8,6.12,0,0-.1.1-.1.1-1.28-.67-1.68-2.01-2.39-3.13-1.94-3.07-4.77-3.26-7.36-.72-2.06,2.02-1.41,4.34-1.1,6.67l-.16.13Z"/><path class="cls-5" d="m66.63,184.93c2.58.92,5.16,1.15,7.73-.01l.17.17c-2.78,2.27-5.26,2.27-8.07,0l.17-.17Z"/><path class="cls-5" d="m33.11,166.19c1.18-.12,2.4-.33,2.84,1.24-1.08-.11-2.09-.39-2.84-1.24Z"/><path class="cls-5" d="m55.42,189.24c-.58-.46-.97-1.04-1.11-1.77,0,0,.18-.17.18-.17.97.21,1.09.95,1.1,1.77l-.18.18Z"/><path class="cls-5" d="m54.32,187.47c-.2-.38-.4-.76-.59-1.14,0,0,.16-.13.16-.13.21.37.41.73.62,1.1l-.18.17Z"/><path class="cls-4" d="m77.24,174.52c-.01.43-.03.85-.04,1.28-.23-.44-.22-.86.04-1.28Z"/><path class="cls-5" d="m30.85,164.99c.52-.07.96.03,1.15.6-.5.02-.95-.05-1.15-.6Z"/><path class="cls-5" d="m31.98,165.59c.54-.08.97.04,1.16.61-.49,0-1,.03-1.16-.61Z"/><path class="cls-5" d="m30.05,164.47c.27.17.54.35.81.52-.27-.17-.54-.35-.81-.52Z"/><path class="cls-4" d="m77.28,179.87c.1.15.11.29,0,.44-.14-.15-.14-.29,0-.44Z"/><path class="cls-9" d="m23.92,158.71c.19.19.37.38.56.57-.4.02-.52-.24-.56-.57Z"/><path class="cls-5" d="m64.83,183.29c.18.2.37.4.55.6,0,0-.09.09-.09.09-.19-.2-.38-.39-.56-.59,0,0,.1-.1.1-.1Z"/><path class="cls-9" d="m23.37,158.1c.18.21.36.41.54.62-.16-.01-.32-.05-.47-.1-.03-.17-.06-.35-.07-.52Z"/><path class="cls-5" d="m65.38,183.88c.2.19.39.37.59.56,0,0-.11.11-.11.11-.19-.19-.38-.39-.57-.58l.09-.09Z"/><path class="cls-5" d="m65.97,184.44c.22.16.45.32.67.48,0,0-.17.16-.17.16-.2-.18-.41-.36-.61-.54l.11-.11Z"/><path class="cls-5" d="m74.37,184.92c.23-.15.47-.3.7-.45,0,0,.06.07.06.07-.2.18-.39.36-.59.55l-.17-.17Z"/><path class="cls-11" d="m85.96,141.98c.22.18.44.36.66.54-.31-.07-.93.23-.66-.54Z"/><path class="cls-14" d="m170.95,70.87c.02-.87.04-1.75.06-2.62,2.04-2.13,4.09-4.22,6.71-5.7,4.51-2.55,9.17-1.72,13.85-.83,1.77,1,3.54,2,5.32,3,.05.74.11,1.48.16,2.21,0,0-.1-.14-.1-.14-.21.2-.43.39-.64.59,0,0,.02-.04.02-.04-.2.2-.41.4-.61.59,0,0,.03-.03.03-.03-.2.18-.4.37-.6.55,0,0-.03.02-.03.02-.48.01-.93.07-1.12.61,0,0,.02,0,.02,0-1.01-.13-1.7.16-1.74,1.31-1.37.6-2.25,2.04-3.87,2.19-5.6,1.77-10.99.62-16.32-1.2,0,0,.07.01.07.01-.23-.52-.66-.65-1.18-.58l-.03.07Z"/><path class="cls-5" d="m201.94,81.56c.02.37.04.74.06,1.12-1.77.15-3.46.47-5.2,1.01-3.12.98-6.29,2.1-9.67,2.04l-.14-.17c4.67-2.52,9.73-3.55,14.95-4Z"/><path class="cls-5" d="m195.54,54.24c2.81,1.06,1.99,3.62,2.36,5.68-.83-1.88-1.92-3.65-2.36-5.68Z"/><path class="cls-5" d="m184.68,86.71c.63-.66,1.42-1,2.31-1.15,0,0,.14.17.14.17-.31,1.3-1.4,1.05-2.31,1.15l-.14-.17Z"/><path class="cls-5" d="m197.05,66.93c-.05-.74-.11-1.48-.16-2.21.59.26,1.45.42,1.5,1.08.05.66-.63,1.05-1.34,1.13Z"/><path class="cls-5" d="m180.13,89.63c.24-.32.49-.65.73-.97.31-.07.63-.15.94-.22,0,0,.16.16.16.16-.17,1.01-.93,1.1-1.74,1.14l-.1-.12Z"/><path class="cls-5" d="m181.81,88.44c.44-.61,1.03-1,1.78-1.09,0,0,.11.12.11.12-.16,1.02-.94,1.09-1.74,1.14l-.16-.16Z"/><path class="cls-5" d="m192.28,70.38c.04-1.16.74-1.44,1.74-1.31-.32.79-1.02,1.07-1.74,1.31Z"/><path class="cls-5" d="m194,69.08c.19-.54.64-.59,1.12-.61-.26.41-.61.64-1.12.61Z"/><path class="cls-5" d="m183.59,87.35c.2-.5.66-.54,1.09-.64,0,0,.14.17.14.17-.37.2-.75.39-1.12.59l-.11-.12Z"/><path class="cls-5" d="m195.15,68.45c.2-.18.4-.37.6-.55-.2.18-.4.37-.6.55Z"/><path class="cls-5" d="m195.73,67.93c.2-.2.41-.4.61-.59.04.45-.27.54-.61.59Z"/><path class="cls-5" d="m196.31,67.37c.21-.2.43-.39.64-.59.09.53-.24.6-.64.59Z"/><path class="cls-1" d="m100.86,190.19c.05.25.1.49.15.74,0,1.09.02,2.18.03,3.28-.07.96-.15,1.91-.22,2.87-.87.62-1.2,1.43-.9,2.48,0,0,.03-.07.03-.07-.37.11-.55.34-.49.73,0,0,.03.03.03.03-1.7.15-2.67,1.12-3.07,2.73,0,0,.04-.04.04-.04-.57-.04-1.02.12-1.18.73-.83.65-1.73.31-2.61.2.02-.49.04-.97.05-1.46,1.01-.75.78-1.86.79-2.87.04-3.22.04-6.43.07-9.65,0-.94-.07-1.97,1.11-2.34.94-.3,1.59.15,2.21.85,1.04,1.17,2.35,1.88,3.98,1.8Z"/><path class="cls-5" d="m100.86,190.19c-1.63.08-2.94-.63-3.98-1.8-.62-.7-1.27-1.15-2.21-.85-1.18.38-1.1,1.4-1.11,2.34-.03,3.22-.02,6.43-.07,9.65-.01,1.01.22,2.12-.79,2.87,0,0-.2.14-.2.14.05-3.22.1-6.43.15-9.64.14-.14.14-.29,0-.43.05-2.69.1-5.38.16-8.07.63-.45.57-1.13.64-1.79.08-.79-.24-1.94,1.02-1.96.89-.02,1.98.17,2.35,1.22.26.74.51,1.48,1.26,1.78,3.15,1.25,3.22,3.77,2.8,6.53Z"/><path class="cls-5" d="m96.4,202.98c.4-1.61,1.38-2.58,3.07-2.73-.65,1.34-1.74,2.17-3.07,2.73Z"/><path class="cls-5" d="m99.91,199.56c-.3-1.05.03-1.86.9-2.48.06.2.12.4.19.6-.1.78-.42,1.43-1.09,1.88Z"/><path class="cls-4" d="m92.5,202.55s.2-.14.2-.14c-.02.49-.03.97-.05,1.46-.43-.4-.25-.86-.14-1.32Z"/><path class="cls-5" d="m95.25,203.67c.17-.61.62-.77,1.18-.73-.2.55-.74.57-1.18.73Z"/><path class="cls-4" d="m92.64,192.48c.14.14.15.28,0,.43-.15-.14-.15-.28,0-.43Z"/><path class="cls-5" d="m99.45,200.22c-.06-.4.12-.63.49-.73-.16.24-.33.49-.49.73Z"/><path class="cls-5" d="m203.29,46.54c-1.64-.13-1.99-1.67-2.71-2.67-4.51-6.23-9.45-12.07-14.96-17.43-.49-.47-.91-.99-.73-1.75,3.13,1.8,5.12,4.86,7.87,7.07.19.19.38.38.58.58,3.49,4.61,7.41,8.92,9.95,14.2Z"/><path class="cls-5" d="m212.98,81.05c-2.22-1.15-1.43-3.48-1.51-5.07-.32-5.78-1.51-11.31-3.34-16.76-.29-.87-.19-1.88-.27-2.82,3.02,7.11,4.43,14.56,4.53,22.26.01.86-.05,1.71.6,2.39Z"/><path class="cls-5" d="m207.34,55.13c-1.7-.84-1.92-2.32-1.72-3.97.83,1.22,1.43,2.52,1.72,3.97Z"/><path class="cls-5" d="m205.57,51.07c-1.64-.14-1.13-1.3-1.08-2.25.53.67.96,1.39,1.08,2.25Z"/><path class="cls-5" d="m204.48,48.78c-.58-.17-.66-.6-.59-1.11.2.37.39.74.59,1.11Z"/><path class="cls-5" d="m203.89,47.68c-.58-.18-.67-.63-.62-1.15.49.23.53.71.62,1.15Z"/><path class="cls-5" d="m207.81,56.31c-.51-.25-.55-.68-.46-1.17.16.39.31.78.46,1.17Z"/><path class="cls-1" d="m74.54,185.08c.2-.18.39-.36.59-.55,1.7.14,2.9-.78,3.09-2.27.16-1.28.3-1.93,1.71-1.82,1.3.1,2.65-.21,3.27,1.52.71,1.98,1.22,3.96,1.19,6.07,0,0-.04-.05-.04-.05-1.64.3-1.73,1.55-1.76,2.85,0,0,0,0,0,0-.19.2-.38.41-.58.61,0,0,.03-.03.03-.03-.2.21-.4.41-.6.62,0,0,.05-.03.05-.03-.21.2-.42.4-.63.6,0,0,.03-.03.03-.03-.24.16-.48.31-.72.47-.54.42-1.08.84-1.61,1.26-.19.2-.39.4-.59.6,0,0,.05-.03.05-.03-.53-.04-.97.08-1.19.63,0,0,.05-.03.05-.03-.71-.07-1.44-.18-1.64.81,0,0,.02.03.02.03-1.73-.93-3.49.12-5.29-.05-5-.48-9.04-2.56-12.49-6.05-.54-.54-1.07-1.08-1.9-1.14,0-.81-.14-1.55-1.1-1.77-.21-.37-.41-.73-.62-1.1-.32-2.33-.96-4.65,1.1-6.67,2.59-2.54,5.42-2.35,7.36.72.71,1.12,1.11,2.45,2.39,3.13.19.2.38.39.56.59.19.19.38.39.57.58.2.18.41.36.61.54,2.81,2.26,5.29,2.26,8.07,0Z"/><path class="cls-4" d="m85.44,184.55c-.94-2.27-.61-4.86-2.26-7.03-1.11-1.46-2.3-2.91-2.84-4.96-1.01-3.82-1.06-5.17,1.69-7.88.56.48,1.12.96,1.68,1.44.16.22.32.44.48.66,2.77,4.28,2.11,9.07,2.05,13.77-.1.13-.11.27-.03.41-.51,1.14.47,2.6-.77,3.58Z"/><path class="cls-5" d="m82.59,190.83c.02-1.3.12-2.55,1.76-2.85-.13,1.23-.82,2.12-1.76,2.85Z"/><path class="cls-5" d="m75.26,196.28c.19-.98.92-.87,1.64-.81-.34.69-1.06.59-1.64.81Z"/><path class="cls-5" d="m76.84,195.5c.22-.55.66-.67,1.19-.63-.2.58-.7.59-1.19.63Z"/><path class="cls-3" d="m86.2,180.97c-.07-.15-.06-.28.03-.41,0,0,.13.22.13.22l-.16.2Z"/><path class="cls-5" d="m82.01,191.44c.19-.2.38-.41.58-.61-.19.2-.38.41-.58.61Z"/><path class="cls-5" d="m81.44,192.03c.2-.21.4-.41.6-.62-.03.37-.21.59-.6.62Z"/><path class="cls-5" d="m80.87,192.6c.21-.2.42-.4.63-.6-.03.39-.23.6-.63.6Z"/><path class="cls-5" d="m80.18,193.04c.24-.16.48-.31.72-.47-.06.43-.29.6-.72.47Z"/><path class="cls-5" d="m77.98,194.9c.2-.2.39-.4.59-.6-.2.2-.39.4-.59.6Z"/><path class="cls-6" d="m81.96,96.74c.34-.03.55.11.61.45-.2-.15-.41-.3-.61-.45Z"/><path class="cls-6" d="m81.43,96.28c.13.12.26.25.38.37-.16-.09-.29-.22-.38-.37Z"/><path class="cls-5" d="m173.49,45.08c-.63,5-1.98,9.79-4.17,14.33-.2-.22-.41-.43-.61-.64,2.28-4.37,2.79-9.33,4.6-13.86l.18.17Z"/><path class="cls-9" d="m168.71,58.77c.2.21.41.43.61.64-.58,2.41-2.15,4.35-3.1,6.58-.14.24-.27.48-.41.72-.95.59-1.01,2.01-2.21,2.36-.58-2.55,2.23-3.51,2.65-5.62.12-.61.53-1.16.8-1.74,0,0,.05-.1.05-.1.16-.16.31-.33.47-.49l.12-.12c.12-.14.24-.29.36-.43.22-.6.43-1.2.65-1.8Z"/><path class="cls-5" d="m176.88,31.73c.68.08,1.04.44,1.02,1.15-1.71-.09-1.45,1.3-1.69,2.28-.81,3.33-1.43,6.71-2.72,9.91,0,0-.18-.17-.18-.17.54-4.57,1.32-9.07,3.58-13.18Z"/><path class="cls-5" d="m177.87,32.86c.86,0,1.5.31,1.73,1.21-.73-.18-1.3-.59-1.73-1.21Z"/><path class="cls-5" d="m180.69,35.11c.56.03,1.05.15,1.01.88-.34-.29-.67-.59-1.01-.88Z"/><path class="cls-5" d="m179.58,34.01c.21.22.43.45.64.67-.21-.22-.43-.45-.64-.67Z"/><path class="cls-5" d="m33.2,153.44c-1.96.02-2.3-1.28-2.3-2.85.16.02.32.05.47.09.15.22.3.45.45.67.46.7.91,1.39,1.37,2.09Z"/><path class="cls-5" d="m38.95,157.47c-.48.03-.9-.07-1.18-.5.57-.24.96-.08,1.18.5Z"/><path class="cls-5" d="m33.78,154.03c-.2-.19-.39-.39-.59-.58.36.03.56.22.59.58Z"/><path class="cls-5" d="m34.94,155.19c-.2-.2-.39-.41-.59-.61.38.03.67.14.59.61Z"/><path class="cls-5" d="m34.36,154.6c-.2-.19-.39-.39-.59-.58.36.03.59.19.59.58Z"/><path class="cls-5" d="m29.78,148.82c-.32,0-.65,0-.97,0,0-.76-.02-1.52-.03-2.28.46.71.96,1.4,1,2.29Z"/><path class="cls-5" d="m30.37,149.98c-.53-.2-.65-.63-.61-1.13.61.16.66.62.61,1.13Z"/><path class="cls-5" d="m30.89,150.58c-.18-.2-.36-.4-.54-.6.45-.04.51.27.54.6Z"/><path class="cls-5" d="m183.68,23.63c-1.34.28-2.4-.25-3.34-1.14-.31-.6-.61-1.21-.92-1.81.11-.02.21-.06.31-.11,1.44.87,2.82,1.81,3.96,3.07Z"/><path class="cls-14" d="m179.14,20.13c.2.15.39.29.59.44-.1.06-.2.09-.3.12-.13-.14-.26-.29-.39-.44l.1-.11Z"/><path class="cls-5" d="m184.89,24.75c-.21-.19-.43-.39-.64-.58.37.02.6.19.64.58Z"/><path class="cls-5" d="m184.27,24.21c-.2-.2-.41-.39-.61-.59.35.04.58.21.61.59Z"/><path class="cls-5" d="m179.28,90.11c.28-.16.56-.32.84-.48,0,0,.1.12.1.12-.14.17-.29.33-.43.5-.17-.05-.33-.1-.51-.13Z"/><path class="cls-14" d="m179.28,90.11c.17.04.34.08.5.13-.22.22-.44.44-.67.67,0,0-.12-.1-.12-.1.1-.23.19-.47.29-.7Z"/><path class="cls-14" d="m171.92,81.37c.16.2.32.4.48.6,1.26,2.22.94,4.2-.88,5.96-.17.23-.33.45-.5.68,0,0,.05-.01.05-.01-2.03-.14-4.06.47-6.09,0-.24-.06-.48-.11-.72-.17-.24-.34-.47-.67-.71-1.01-.98-2.18-.92-4.48.9-5.95,1.7-1.38,3.93-2.27,6.16-.53.34.26.86.29,1.3.43Z"/><path class="cls-9" d="m160.02,9.51c-1.2.55-2.02.04-2.66-.96.89.32,1.77.64,2.66.96Z"/><path class="cls-9" d="m22.6,155.28c.26.94.51,1.89.77,2.83-.16-.02-.32-.06-.48-.09-.15-.22-.31-.44-.46-.67-.38-.57-.77-1.14-1.15-1.72-.07-.31-.15-.62-.22-.93.51.19,1.03.39,1.54.58Z"/><path class="cls-9" d="m18.19,147.63c.84,1.07,1.26,2.27,1.08,3.65-.69-1.12-1.63-2.16-1.08-3.65Z"/><path class="cls-9" d="m19.76,152.45c.59.16.7.59.63,1.13-.5-.21-.55-.68-.63-1.13Z"/><path class="cls-9" d="m19.24,151.23c.58.23.67.68.54,1.23-.47-.28-.5-.75-.54-1.23Z"/><path class="cls-9" d="m20.4,153.58c.51.19.66.59.66,1.09-.51-.19-.61-.62-.66-1.09Z"/><path class="cls-9" d="m171.02,88.61c.17-.23.33-.45.5-.68.12.44-.11.62-.5.68Z"/><path class="cls-9" d="m170.98,70.8c.52-.07.95.06,1.18.58-.48-.01-1.03.1-1.18-.58Z"/><path class="cls-5" d="m212.18,93.23c3.9-.26,4.71,3.12,5.52,5.51,1.71,5.12,1.41,10.3-2.3,14.72-.91,1.08-2.01,2.04-3.57,2.1.41-.53.82-1.07,1.23-1.6l.55-.6c4.8-4.74,5.31-11.52,1.28-16.94-.51-1.39-1.93-2.02-2.7-3.19Z"/><path class="cls-5" d="m202.66,90.17c1.48.45,3.34-.73,4.53,1.02-7.63-.9-14.24,1.88-20.57,5.67-.56.34-1.11.69-1.66,1.04-.12-.12-.23-.24-.35-.36.34-.85,1.05-1.3,1.78-1.79,4.93-3.31,10.41-5.02,16.28-5.59Z"/><path class="cls-5" d="m182.36,99.08c.06-.27.12-.55.18-.82.69-.24,1.37-.48,2.06-.72.11.12.23.24.35.36-.68.61-1.36,1.22-2.04,1.84-.18-.13-.36-.26-.54-.39,0,0,0-.27,0-.27Z"/><path class="cls-2" d="m179.04,20.24c.13.15.26.29.39.44.3.6.61,1.2.92,1.81-1.25.08-1.91.91-2.16,1.97-.57,2.39-1.33,4.76-1.3,7.27-2.25,4.1-3.04,8.61-3.57,13.18-1.81,4.53-2.31,9.49-4.6,13.86-.22.6-.43,1.2-.65,1.8-.12.14-.24.29-.36.43,0,0-.12.12-.12.12-.16.16-.31.33-.47.49,0,0-.05.1-.05.1-2.87-1.72-6.15-3.07-6.46-7.11,0,0-.02.06-.02.06.54-.27.67-.71.54-1.27,0,0-.04.07-.04.06,1.99-1.2,1.93-3.45,2.48-5.26,1.71-5.63,3.48-11.26,3.85-17.2,0,0-.02.02-.02.02,1.99-.88,1.12-2.59,1.18-4.03,0,0-.04.03-.04.03.64-.31.7-.63.04-.99,0,0,.01.02.01.02-.58-1.97-2.36-2.88-3.79-4-1.38-1.08-1.38-2.11-.69-3.45,2.14-4.19,3.07-4.43,7.22-1.89,2.43,1.49,4.88,2.95,7.73,3.54Z"/><path class="cls-2" d="m184.6,97.54c-.69.24-1.37.48-2.06.72-.72-2.01-.84-4.36-3.21-5.47-.3-.14-.15-1.23-.21-1.88.22-.22.44-.44.67-.67.15-.17.29-.33.44-.5.81-.03,1.57-.13,1.74-1.14.8-.05,1.57-.12,1.74-1.14.37-.2.75-.39,1.12-.59.91-.1,2,.15,2.31-1.15,3.37.06,6.55-1.06,9.67-2.04,1.75-.55,3.43-.86,5.2-1.01.22,2.5.44,5,.66,7.49-5.87.56-11.35,2.27-16.28,5.58-.73.49-1.44.94-1.78,1.79Z"/><path class="cls-9" d="m146.36,35.68c2.17,2.06,4.89.79,7.33,1.22.02,2.13.75,4.32-.57,6.32-.7.77-.39,1.72-.44,2.6-.03.28-.06.55-.09.83-.15.41-.3.82-.46,1.23l.06-.08c-.53.28-.65.73-.54,1.28l.1.06c-.28-.02-.59-.11-.85-.05-1.62.4-4.16,4.88-4.35-1,0-.07-.11-.16-.19-.21-1.4-.91-1.1-1.88-.38-3.16.66-1.17-.16-3.33-.64-3.34-6.26-.12-.99-1.65-.37-2.6.14-.22.13-.55.19-.83.06-.16.08-.32.07-.49,0,0,0,.01,0,.01,1.65.23,1.55-.58,1-1.67l.16-.14Z"/><path class="cls-12" d="m142.89,28.81c2.47.69,1.76,2.93,2.24,4.59l-.02.08c-.54-.8-1.08-1.59-1.63-2.39,0,0,.01.04.01.04,0-.49,0-.99-.59-1.19,0,0,.04.01.04.01-.04-.36-.08-.72-.11-1.08l.05-.04Z"/><path class="cls-12" d="m140.62,25.35c-.05-.37-.09-.74-.14-1.11,1.65,1.07,2.21,2.72,2.4,4.56,0,0-.05.04-.05.04-.36-.4-.72-.81-1.08-1.21,0,0,.02.02.02.02-.11-.91-.48-1.69-1.17-2.31h.02Z"/><path class="cls-9" d="m145.13,33.39c.46.26.61.68.63,1.17l-.11.09c-.15-.04-.31-.08-.47-.11,0,0,0,0,0,0-.03-.36-.06-.72-.08-1.09l.02-.08Z"/><path class="cls-9" d="m145.76,34.57c.2.37.4.74.6,1.11,0,0-.16.14-.16.14-.5-.24-.48-.72-.55-1.16l.11-.09Z"/><path class="cls-12" d="m151.74,49.15c-2.72,6.85-8.35,9.79-15.09,11.22-3.29-7.58-2.16-15.08,5.1-21.08.37-.23.74-.47,1.12-.7,0,0,0,0,0,0,.76-.21,1.52-.41,2.27-.62-.06.28-.04.61-.19.83-.61.95-5.89,2.48.37,2.6.48,0,1.3,2.17.64,3.34-.72,1.28-1.01,2.25.38,3.16.08.05.19.13.19.21.19,5.88,2.73,1.4,4.35,1,.26-.06.57.03.85.05Z"/><path class="cls-6" d="m122.75,89.92c-.12.8-.48,1.33-1.38,1.3.25-.66.78-1.01,1.38-1.3Z"/><path class="cls-15" d="m136.62,79.97c-.22.16-.45.33-.67.49.22-.16.45-.33.67-.49Z"/><path class="cls-15" d="m140.65,77.1c-.22.2-.43.4-.65.6.22-.2.43-.4.65-.6Z"/><path class="cls-5" d="m101.04,194.21c0-1.09-.02-2.18-.03-3.28.79,1.09.75,2.18.03,3.28Z"/><path class="cls-9" d="m153.19,66.14c.34-.4.68-.81,1.02-1.21.09.76-.28,1.14-1.02,1.21Z"/><path class="cls-9" d="m154.25,64.88c.17-.2.34-.4.51-.6-.17.2-.34.4-.51.6Z"/><path class="cls-14" d="m167.41,30.99c-.37,5.94-2.14,11.57-3.85,17.2-.55,1.82-.5,4.07-2.48,5.26,2.67-7.33,3.76-15.11,6.33-22.47Z"/><path class="cls-14" d="m168.57,26.98c-.06,1.44.81,3.15-1.18,4.03.18-1.41.52-2.76,1.18-4.03Z"/><path class="cls-14" d="m168.57,26.02c.66.36.6.68-.04.99.01-.33.03-.66.04-.99Z"/><path class="cls-14" d="m161.12,53.39c.13.56,0,1-.54,1.27.04-.48,0-1,.54-1.27Z"/><path class="cls-2" d="m182.36,99.08s.01.27,0,.27c0,0-.15.03-.15.03,0,0-.15-.02-.15-.02.02-.17.11-.27.28-.28Z"/><path class="cls-14" d="m167.11,61.61c.16-.17.31-.33.47-.49-.16.17-.31.33-.47.49Z"/><path class="cls-14" d="m167.7,61c.12-.15.24-.29.36-.43-.12.15-.24.29-.36.43Z"/><path class="cls-12" d="m153.12,43.22c.05.9.42,1.86-.44,2.6.05-.88-.25-1.83.44-2.6Z"/><path class="cls-12" d="m152.18,47.8c-.06.48-.05.99-.54,1.28-.11-.55,0-1,.54-1.28Z"/><path class="cls-12" d="m152.58,46.65c.03.48.03.94-.46,1.23.15-.41.31-.82.46-1.23Z"/></g></svg>